<svg xmlns="http://www.w3.org/2000/svg" version="1.1" xmlns:xlink="http://www.w3.org/1999/xlink" xmlns:svgjs="http://svgjs.dev/svgjs" width="2000" height="448" viewBox="0 0 2000 448"><g transform="matrix(1,0,0,1,0.21333333333336668,0.44021333333330404)"><svg viewBox="0 0 375 84" data-background-color="#0023ff" preserveAspectRatio="xMidYMid meet" height="448" width="2000" xmlns="http://www.w3.org/2000/svg" xmlns:xlink="http://www.w3.org/1999/xlink"><g id="tight-bounds" transform="matrix(1,0,0,1,-0.03976000000000113,-0.0825399999999945)"><svg viewBox="0 0 375.07953 84.16487999999995" height="84.16487999999995" width="375.07953"><g><svg></svg></g><g><svg viewBox="0 0 375.07953 84.16487999999995" height="84.16487999999995" width="375.07953"><g transform="matrix(1,0,0,1,-10.22024,-86.14892)"><path d="M10.22 161.051v-74.902h375.08v74.902h-111.427v-2.808h108.618v-69.286h-369.462v69.286h108.618l0 2.808z" fill="#000000" fill-rule="nonzero" stroke="none" stroke-width="1" stroke-linecap="butt" stroke-linejoin="miter" stroke-miterlimit="10" stroke-dasharray="" stroke-dashoffset="0" font-family="none" font-weight="none" font-size="none" text-anchor="none" style="mix-blend-mode: normal" data-fill-palette-color="tertiary"></path><g><path d="M136.673 164.082v-14.316h2.424v14.187c0 1.055-0.095 1.935-0.287 2.64-0.191 0.701-0.561 1.341-1.109 1.922v0c-1.114 1.172-2.726 1.758-4.836 1.758v0c-0.95 0-1.881-0.115-2.792-0.345v0l0.379-2.026c0.639 0.152 1.31 0.228 2.015 0.227v0c0.58 0 1.098-0.058 1.554-0.175 0.456-0.121 0.827-0.263 1.116-0.426 0.292-0.167 0.543-0.387 0.753-0.66 0.206-0.269 0.358-0.51 0.456-0.724 0.093-0.214 0.169-0.477 0.227-0.789 0.055-0.308 0.086-0.537 0.094-0.689 0.004-0.152 0.006-0.347 0.006-0.584zM146.228 163.083v-13.317h2.424v13.13c0 0.81 0.068 1.505 0.204 2.085 0.14 0.58 0.432 1.121 0.876 1.624v0c0.95 1.075 2.352 1.612 4.206 1.612v0c1.343 0 2.463-0.292 3.358-0.876 0.899-0.584 1.482-1.41 1.746-2.477v0c0.125-0.502 0.187-1.158 0.187-1.968v0-13.13h2.395c0 3.049 0.004 5.543 0.012 7.482 0.004 1.943 0.006 3.187 0.005 3.732 0 0.545 0.002 0.983 0.006 1.315 0.004 0.327 0.006 0.6 0.006 0.817v0c0 0.436-0.01 0.818-0.029 1.145-0.016 0.331-0.08 0.761-0.193 1.291-0.109 0.533-0.257 0.997-0.444 1.39-0.191 0.397-0.479 0.818-0.864 1.261-0.385 0.448-0.843 0.818-1.373 1.11-0.526 0.288-1.199 0.528-2.021 0.719-0.822 0.191-1.752 0.286-2.791 0.286v0c-1.11 0-2.107-0.117-2.991-0.351-0.884-0.234-1.579-0.512-2.085-0.835-0.502-0.323-0.936-0.713-1.302-1.168-0.366-0.456-0.617-0.847-0.754-1.174-0.14-0.331-0.253-0.676-0.339-1.034v0c-0.16-0.631-0.239-1.521-0.239-2.669zM176.354 149.579v0c1.561 0 3.24 0.271 5.035 0.812v0l-0.783 2.214c-1.713-0.495-3.197-0.742-4.451-0.742v0c-1.406 0-2.595 0.296-3.568 0.888-0.977 0.596-1.466 1.365-1.466 2.307v0c0 0.522 0.158 0.987 0.473 1.396 0.311 0.409 0.724 0.742 1.238 0.999 0.514 0.257 1.1 0.51 1.758 0.759 0.654 0.253 1.322 0.485 2.003 0.695 0.678 0.206 1.345 0.471 2.004 0.794 0.654 0.323 1.238 0.678 1.752 1.063 0.514 0.385 0.927 0.888 1.238 1.507 0.315 0.619 0.473 1.318 0.473 2.097v0c0 0.541-0.086 1.081-0.257 1.618-0.171 0.537-0.458 1.069-0.858 1.594-0.397 0.53-0.89 0.993-1.478 1.39-0.592 0.401-1.336 0.724-2.231 0.97-0.899 0.249-1.9 0.374-3.002 0.374-1.106 0-2.122-0.115-3.049-0.345-0.927-0.226-1.964-0.568-3.113-1.028v0l0.829-2.348c2.375 0.884 4.252 1.326 5.631 1.326v0c1.445 0 2.62-0.29 3.527-0.87 0.907-0.58 1.361-1.355 1.361-2.325v0c0-0.646-0.201-1.205-0.601-1.676-0.405-0.471-0.929-0.851-1.571-1.139-0.642-0.292-1.353-0.565-2.132-0.818-0.779-0.249-1.556-0.52-2.331-0.811-0.775-0.288-1.484-0.623-2.126-1.005-0.642-0.378-1.166-0.89-1.571-1.536-0.401-0.65-0.602-1.411-0.601-2.284v0c0-0.779 0.187-1.524 0.56-2.237 0.378-0.716 0.898-1.341 1.56-1.875 0.666-0.537 1.499-0.966 2.5-1.285 0.997-0.319 2.079-0.479 3.247-0.479zM185.267 151.904v-2.138h15.974v2.138h-6.775v18.124h-2.424v-18.124zM217.466 164.082v-14.316h2.424v14.187c0 1.055-0.095 1.935-0.286 2.64-0.191 0.701-0.561 1.341-1.11 1.922v0c-1.114 1.172-2.726 1.758-4.836 1.758v0c-0.95 0-1.881-0.115-2.792-0.345v0l0.38-2.026c0.639 0.152 1.31 0.228 2.015 0.227v0c0.58 0 1.098-0.058 1.554-0.175 0.456-0.121 0.827-0.263 1.115-0.426 0.292-0.167 0.543-0.387 0.754-0.66 0.206-0.269 0.358-0.51 0.455-0.724 0.093-0.214 0.169-0.477 0.228-0.789 0.055-0.308 0.086-0.537 0.093-0.689 0.004-0.152 0.006-0.347 0.006-0.584zM235.491 149.55v0c1.339 0 2.591 0.236 3.755 0.707 1.164 0.471 2.173 1.135 3.026 1.992 0.849 0.853 1.517 1.92 2.003 3.2 0.483 1.277 0.724 2.681 0.724 4.211v0c0 2.071-0.411 3.913-1.232 5.526-0.822 1.612-1.962 2.858-3.423 3.738-1.46 0.88-3.111 1.32-4.953 1.32v0c-1.219 0-2.383-0.216-3.492-0.649-1.114-0.436-2.116-1.067-3.008-1.892-0.896-0.825-1.61-1.906-2.144-3.242-0.53-1.336-0.794-2.841-0.794-4.514v0c0-1.569 0.241-3.004 0.724-4.305 0.487-1.304 1.153-2.401 1.998-3.288 0.845-0.888 1.851-1.577 3.019-2.068 1.172-0.491 2.438-0.736 3.797-0.736zM235.362 151.676v0c-0.864 0-1.696 0.162-2.494 0.485-0.798 0.323-1.534 0.796-2.208 1.419-0.67 0.623-1.205 1.46-1.606 2.512-0.405 1.047-0.607 2.233-0.607 3.557v0c0 1.262 0.185 2.428 0.555 3.498 0.37 1.071 0.874 1.966 1.512 2.687 0.635 0.724 1.388 1.285 2.261 1.682 0.868 0.401 1.803 0.602 2.803 0.602v0c0.674 0 1.336-0.099 1.986-0.298 0.65-0.202 1.275-0.52 1.875-0.952 0.6-0.432 1.125-0.962 1.577-1.589 0.452-0.627 0.812-1.402 1.08-2.324 0.273-0.923 0.409-1.935 0.409-3.038v0c0-1.121-0.142-2.147-0.426-3.078-0.284-0.934-0.662-1.715-1.133-2.342-0.471-0.627-1.018-1.156-1.641-1.588-0.623-0.432-1.265-0.746-1.928-0.941-0.658-0.195-1.33-0.292-2.015-0.292zM257.393 151.618h-3.907v6.804c0.179-0.012 0.493-0.019 0.94-0.023 0.448-0.004 0.794-0.008 1.04-0.012 0.249-0.008 0.598-0.027 1.045-0.058 0.444-0.035 0.802-0.074 1.075-0.117 0.269-0.043 0.596-0.109 0.981-0.199 0.385-0.09 0.699-0.195 0.94-0.315 0.245-0.117 0.502-0.269 0.771-0.456 0.273-0.183 0.485-0.389 0.637-0.619 0.152-0.23 0.278-0.502 0.38-0.817 0.097-0.319 0.146-0.67 0.146-1.052v0c0-0.284-0.027-0.555-0.082-0.812-0.058-0.257-0.177-0.533-0.356-0.829-0.183-0.292-0.417-0.543-0.701-0.753-0.284-0.21-0.676-0.385-1.174-0.526-0.502-0.144-1.081-0.216-1.735-0.216zM253.486 160.303v0 7.587h3.779c0.343 0 0.631-0.002 0.864-0.006 0.23-0.008 0.565-0.037 1.005-0.088 0.436-0.055 0.808-0.127 1.115-0.216 0.311-0.09 0.656-0.228 1.034-0.414 0.382-0.183 0.689-0.403 0.923-0.66 0.234-0.257 0.43-0.588 0.59-0.993 0.164-0.401 0.245-0.859 0.245-1.373v0c0-1.265-0.491-2.254-1.472-2.967-0.977-0.713-2.293-1.069-3.948-1.069v0c-0.179 0-1.558 0.066-4.135 0.199zM251.062 170.028v-20.262h7.143c0.693 0 1.328 0.074 1.904 0.222 0.576 0.144 1.051 0.331 1.425 0.561 0.378 0.23 0.711 0.5 0.999 0.812 0.288 0.315 0.51 0.619 0.666 0.911 0.152 0.296 0.275 0.611 0.368 0.946 0.093 0.331 0.154 0.604 0.181 0.818 0.023 0.214 0.035 0.417 0.035 0.607v0c0 0.825-0.28 1.649-0.841 2.471-0.561 0.822-1.156 1.353-1.788 1.594v0c1.258 0.226 2.288 0.831 3.09 1.817 0.802 0.981 1.203 2.101 1.203 3.358v0c0 0.292-0.025 0.6-0.076 0.923-0.055 0.323-0.158 0.689-0.309 1.098-0.152 0.409-0.347 0.8-0.584 1.174-0.238 0.37-0.561 0.738-0.97 1.104-0.409 0.366-0.876 0.681-1.402 0.946-0.53 0.269-1.176 0.485-1.939 0.648-0.767 0.167-1.606 0.251-2.517 0.252v0z" fill="#000000" fill-rule="nonzero" stroke="none" stroke-width="1" stroke-linecap="butt" stroke-linejoin="miter" stroke-miterlimit="10" stroke-dasharray="" stroke-dashoffset="0" font-family="none" font-weight="none" font-size="none" text-anchor="none" style="mix-blend-mode: normal" data-fill-palette-color="secondary" id="text-1"></path></g></g><g transform="matrix(1,0,0,1,29.33176499999999,26.511179432176633)"><svg viewBox="0 0 316.416 31.142521135646685" height="31.142521135646685" width="316.416"><g><svg viewBox="0 0 316.416 31.142521135646685" height="31.142521135646685" width="316.416"><g><svg viewBox="0 0 316.416 31.142521135646685" height="31.142521135646685" width="316.416"><g id="textblocktransform"><svg viewBox="0 0 316.416 31.142521135646685" height="31.142521135646685" width="316.416" id="textblock"><g><svg viewBox="0 0 316.416 31.142521135646685" height="31.142521135646685" width="316.416"><g transform="matrix(1,0,0,1,0,0)"><svg width="316.416" viewBox="3.5 -38.25 396.22 39" height="31.142521135646685" data-palette-color="#f8fafc"><path d="M6.5-33L3.5-33 3.5-35 14.5-35Q26.65-35 29.9-29.4L29.9-29.4Q31.15-27.2 31.15-24.05L31.15-24.05Q31.15-16.75 22.85-14.25L22.85-14.25Q26-13.2 27.05-9.9L27.05-9.9 28.55-4.9Q28.9-3.65 29.45-3.15 30-2.65 31.3-2.65 32.6-2.65 34.35-4.1L34.35-4.1 35.25-2.9Q31.25 0.75 26.75 0.75L26.75 0.75Q24.45 0.75 23.05-0.05 21.65-0.85 21.05-2.85L21.05-2.85 18.7-10.55Q18.25-12 17.3-12.55 16.35-13.1 14-13.15L14-13.15 14-2 18-2 18 0 3.5 0 3.5-2 6.5-2 6.5-33ZM14.5-33L14.5-33 14-33 14-15.15 14.5-15.15Q18.45-15.15 21.05-17.48 23.65-19.8 23.65-24.05 23.65-28.3 21.05-30.65 18.45-33 14.5-33ZM57.1-25L64.6-25 64.6-5.55Q64.6-4.2 65.25-3.43 65.9-2.65 67.25-2.65 68.6-2.65 70.35-4.1L70.35-4.1 71.25-2.9Q67.25 0.75 63.25 0.75L63.25 0.75Q58.5 0.75 57.4-3.7L57.4-3.7Q54.8 0.75 49.75 0.75L49.75 0.75Q44 0.75 41-2.98 38-6.7 38-12.48 38-18.25 41.22-22 44.45-25.75 50.25-25.75L50.25-25.75Q54.7-25.75 57.1-22.2L57.1-22.2 57.1-25ZM47.15-20.1Q45.75-17.3 45.75-12.5 45.75-7.7 47.15-4.9 48.55-2.1 51.42-2.1 54.3-2.1 55.82-4.93 57.35-7.75 57.35-12.5 57.35-17.25 55.82-20.08 54.3-22.9 51.42-22.9 48.55-22.9 47.15-20.1ZM92.59-25L100.09-25 100.09-5.55Q100.09-4.2 100.75-3.43 101.4-2.65 102.75-2.65 104.09-2.65 105.84-4.1L105.84-4.1 106.75-2.9Q102.75 0.75 98.75 0.75L98.75 0.75Q94 0.75 92.9-3.7L92.9-3.7Q90.3 0.75 85.25 0.75L85.25 0.75Q79.5 0.75 76.5-2.98 73.5-6.7 73.5-12.48 73.5-18.25 76.72-22 79.95-25.75 85.75-25.75L85.75-25.75Q90.2-25.75 92.59-22.2L92.59-22.2 92.59-25ZM82.65-20.1Q81.25-17.3 81.25-12.5 81.25-7.7 82.65-4.9 84.05-2.1 86.92-2.1 89.8-2.1 91.32-4.93 92.84-7.75 92.84-12.5 92.84-17.25 91.32-20.08 89.8-22.9 86.92-22.9 84.05-22.9 82.65-20.1ZM118.79-35.2L118.79-35.2 118.79-22.35Q120.54-24.25 122.57-25 124.59-25.75 127.72-25.75 130.84-25.75 132.82-23.78 134.79-21.8 134.79-18.4L134.79-18.4 134.79-5.55Q134.79-4.2 135.44-3.43 136.09-2.65 137.44-2.65 138.79-2.65 140.54-4.1L140.54-4.1 141.44-2.9Q137.44 0.75 133.44 0.75L133.44 0.75Q127.29 0.75 127.29-6.6L127.29-6.6 127.29-19.45Q127.29-21 126.34-21.85 125.39-22.7 123.69-22.7 121.99-22.7 120.39-21.3 118.79-19.9 118.79-17.65L118.79-17.65 118.79 0 111.29 0 111.29-35.85Q108.54-35.15 107.09-33.4L107.09-33.4 105.74-34.95Q107.19-36.45 109.42-37.35 111.64-38.25 113.82-38.25 115.99-38.25 117.39-37.38 118.79-36.5 118.79-35.2ZM157.94-12.6L142.94-12.6 142.94-15.6 157.94-15.6 157.94-12.6ZM174.14-11.55Q177.39-11.85 179.16-14.03 180.94-16.2 180.94-18.43 180.94-20.65 179.96-21.85 178.99-23.05 177.01-23.05 175.04-23.05 173.24-20.25 171.44-17.45 171.44-12.75 171.44-8.05 173.14-5.2 174.84-2.35 177.99-2.35L177.99-2.35Q182.79-2.35 186.14-6.1L186.14-6.1 187.54-5.2Q185.84-2.5 183.04-0.88 180.24 0.75 176.74 0.75L176.74 0.75Q170.79 0.75 167.24-3.18 163.69-7.1 163.69-12.65 163.69-18.2 167.46-21.98 171.24-25.75 177.94-25.75L177.94-25.75Q182.34-25.75 184.84-23.7 187.34-21.65 187.34-18.5 187.34-15.35 184.56-12.68 181.79-10 177.24-10L177.24-10Q175.69-10 174.24-10.35L174.24-10.35 174.14-11.55ZM207.78-12.6L192.78-12.6 192.78-15.6 207.78-15.6 207.78-12.6ZM222.78 0L213.28 0 213.28-2 216.28-2 216.28-33 213.28-33 213.28-35 224.98-35 239.28-6.85 239.28-33 236.28-33 236.28-35 245.78-35 245.78-33 242.78-33 242.78 0 234.83 0 219.78-29.6 219.78-2 222.78-2 222.78 0ZM271.13-25L278.63-25 278.63-5.55Q278.63-4.2 279.28-3.43 279.93-2.65 281.28-2.65 282.63-2.65 284.38-4.1L284.38-4.1 285.28-2.9Q281.28 0.75 277.28 0.75L277.28 0.75Q272.53 0.75 271.43-3.7L271.43-3.7Q268.83 0.75 263.78 0.75L263.78 0.75Q258.03 0.75 255.03-2.98 252.03-6.7 252.03-12.48 252.03-18.25 255.25-22 258.48-25.75 264.28-25.75L264.28-25.75Q268.73-25.75 271.13-22.2L271.13-22.2 271.13-25ZM261.18-20.1Q259.78-17.3 259.78-12.5 259.78-7.7 261.18-4.9 262.58-2.1 265.45-2.1 268.33-2.1 269.86-4.93 271.38-7.75 271.38-12.5 271.38-17.25 269.86-20.08 268.33-22.9 265.45-22.9 262.58-22.9 261.18-20.1ZM297.98-22.7L297.98-22.7 297.98-5.55Q297.98-4 298.93-3.15 299.88-2.3 301.58-2.3 303.28-2.3 304.88-3.7 306.48-5.1 306.48-7.35L306.48-7.35 306.48-25 313.98-25 313.98-5.55Q313.98-4.2 314.63-3.43 315.28-2.65 316.63-2.65 317.98-2.65 319.73-4.1L319.73-4.1 320.63-2.9Q316.63 0.75 312.48 0.75 308.33 0.75 306.98-2.95L306.98-2.95Q305.03-0.9 302.95-0.08 300.88 0.75 297.65 0.75 294.43 0.75 292.45-1.23 290.48-3.2 290.48-6.6L290.48-6.6 290.48-23.35Q287.73-22.65 286.28-20.9L286.28-20.9 284.93-22.45Q286.38-23.95 288.6-24.85 290.83-25.75 293-25.75 295.18-25.75 296.58-24.88 297.98-24 297.98-22.7ZM332.68-35.2L332.68-35.2 332.68-22.25Q335.38-25.75 340.98-25.75L340.98-25.75Q344.18-25.75 346.18-24.15 348.18-22.55 348.18-20.13 348.18-17.7 346.73-15.8 345.27-13.9 342.77-12.7L342.77-12.7 345.77-4.9Q346.27-3.6 346.77-3.13 347.27-2.65 348.18-2.65L348.18-2.65Q349.82-2.65 351.57-4.1L351.57-4.1 352.48-2.9Q348.48 0.75 344.2 0.75 339.93 0.75 338.52-2.85L338.52-2.85 334.77-12.45Q337.52-13.1 339.35-15.15 341.18-17.2 341.18-19.1 341.18-21 340.23-21.85 339.27-22.7 337.82-22.7L337.82-22.7Q335.43-22.7 334.05-20.78 332.68-18.85 332.68-15.5L332.68-15.5 332.68 0 325.18 0 325.18-35.85Q322.43-35.15 320.98-33.4L320.98-33.4 319.63-34.95Q321.07-36.45 323.3-37.35 325.52-38.25 327.7-38.25 329.88-38.25 331.27-37.38 332.68-36.5 332.68-35.2ZM371.62-25.75L371.62-25.75Q373.12-25.75 373.12-22.9L373.12-22.9 373.12-5.55Q373.12-4.2 373.77-3.43 374.42-2.65 375.77-2.65 377.12-2.65 378.87-4.1L378.87-4.1 379.77-2.9Q375.77 0.75 371.77 0.75L371.77 0.75Q365.62 0.75 365.62-6.6L365.62-6.6 365.62-20.65Q363.27-19.7 359.92-19.35L359.92-19.35Q359.52-14.75 357.27-10.15L357.27-10.15 355.22-10.75Q356.62-14.3 356.72-19.2L356.72-19.2Q354.82-19.2 353.65-20.3 352.47-21.4 352.47-23.03 352.47-24.65 353.6-25.78 354.72-26.9 356.35-26.9 357.97-26.9 359.07-25.75 360.17-24.6 360.17-22.8L360.17-22.8 361.12-22.8Q365.07-22.8 369.52-25L369.52-25Q370.97-25.75 371.62-25.75ZM386.5-30.68Q385.32-31.85 385.32-33.5 385.32-35.15 386.5-36.33 387.67-37.5 389.32-37.5 390.97-37.5 392.15-36.33 393.32-35.15 393.32-33.5 393.32-31.85 392.15-30.68 390.97-29.5 389.32-29.5 387.67-29.5 386.5-30.68ZM388.37-25.75L388.37-25.75Q393.07-25.75 393.07-21.7L393.07-21.7 393.07-5.55Q393.07-4.2 393.72-3.43 394.37-2.65 395.72-2.65 397.07-2.65 398.82-4.1L398.82-4.1 399.72-2.9Q395.72 0.75 391.72 0.75L391.72 0.75Q385.57 0.75 385.57-6.6L385.57-6.6 385.57-23.35Q382.82-22.65 381.37-20.9L381.37-20.9 380.02-22.45Q381.47-23.95 383.7-24.85 385.92-25.75 388.37-25.75Z" opacity="1" transform="matrix(1,0,0,1,0,0)" fill="#000000" class="wordmark-text-0" data-fill-palette-color="primary" id="text-0"></path></svg></g></svg></g></svg></g></svg></g><g></g></svg></g></svg></g></svg></g><defs></defs></svg><rect width="375.07953" height="84.16487999999995" fill="none" stroke="none" visibility="hidden"></rect></g></svg></g></svg>